<mxfile host="65bd71144e">
    <diagram id="31hxa-FI0dKbRcX7wDGP" name="Page-1">
        <mxGraphModel dx="1577" dy="1192" grid="1" gridSize="10" guides="1" tooltips="1" connect="1" arrows="1" fold="1" page="1" pageScale="1" pageWidth="1169" pageHeight="827" math="0" shadow="0">
            <root>
                <mxCell id="0"/>
                <mxCell id="1" parent="0"/>
                <mxCell id="29" value="" style="rounded=0;whiteSpace=wrap;html=1;strokeColor=default;fontSize=14;fillColor=default;" parent="1" vertex="1">
                    <mxGeometry x="40" y="80" width="1000" height="640" as="geometry"/>
                </mxCell>
                <mxCell id="17" value="" style="rounded=0;whiteSpace=wrap;html=1;strokeColor=default;fontSize=14;dashed=1;fillColor=none;" parent="1" vertex="1">
                    <mxGeometry x="390" y="180" width="440" height="230" as="geometry"/>
                </mxCell>
                <mxCell id="20" style="edgeStyle=none;html=1;fontSize=14;" parent="1" source="2" target="8" edge="1">
                    <mxGeometry relative="1" as="geometry">
                        <mxPoint x="320" y="334" as="targetPoint"/>
                    </mxGeometry>
                </mxCell>
                <mxCell id="2" value="Request" style="text;html=1;strokeColor=none;fillColor=none;align=center;verticalAlign=middle;whiteSpace=wrap;rounded=0;fontSize=14;" parent="1" vertex="1">
                    <mxGeometry x="40" y="314" width="100" height="40" as="geometry"/>
                </mxCell>
                <mxCell id="21" style="edgeStyle=orthogonalEdgeStyle;html=1;fontSize=14;entryX=0.005;entryY=0.489;entryDx=0;entryDy=0;entryPerimeter=0;" parent="1" source="8" target="11" edge="1">
                    <mxGeometry relative="1" as="geometry">
                        <mxPoint x="382" y="290" as="targetPoint"/>
                    </mxGeometry>
                </mxCell>
                <mxCell id="25" style="edgeStyle=orthogonalEdgeStyle;html=1;entryX=-0.01;entryY=0.446;entryDx=0;entryDy=0;entryPerimeter=0;fontSize=14;" parent="1" source="8" target="10" edge="1">
                    <mxGeometry relative="1" as="geometry"/>
                </mxCell>
                <mxCell id="8" value="Container Apps" style="aspect=fixed;html=1;points=[];align=center;image;fontSize=12;image=img/lib/azure2/other/Worker_Container_App.svg;strokeColor=default;" parent="1" vertex="1">
                    <mxGeometry x="202" y="301" width="68" height="66" as="geometry"/>
                </mxCell>
                <mxCell id="10" value="Azure OpenAI" style="aspect=fixed;html=1;points=[];align=center;image;fontSize=12;image=img/lib/azure2/ai_machine_learning/Cognitive_Services.svg;strokeColor=default;" parent="1" vertex="1">
                    <mxGeometry x="360" y="610" width="68" height="48" as="geometry"/>
                </mxCell>
                <mxCell id="55" style="edgeStyle=orthogonalEdgeStyle;html=1;entryX=1;entryY=0.5;entryDx=0;entryDy=0;" parent="1" source="12" target="18" edge="1">
                    <mxGeometry relative="1" as="geometry"/>
                </mxCell>
                <mxCell id="12" value="" style="aspect=fixed;html=1;points=[];align=center;image;fontSize=12;image=img/lib/azure2/storage/Storage_Accounts.svg;strokeColor=default;" parent="1" vertex="1">
                    <mxGeometry x="870" y="214" width="65" height="52" as="geometry"/>
                </mxCell>
                <mxCell id="14" value="search similar architectures" style="text;html=1;strokeColor=none;fillColor=none;align=left;verticalAlign=middle;whiteSpace=wrap;rounded=0;fontSize=14;" parent="1" vertex="1">
                    <mxGeometry x="430" y="120" width="130" height="30" as="geometry"/>
                </mxCell>
                <mxCell id="16" value="explanin similar architectures" style="text;html=1;strokeColor=none;fillColor=none;align=left;verticalAlign=middle;whiteSpace=wrap;rounded=0;fontSize=14;" parent="1" vertex="1">
                    <mxGeometry x="428" y="578" width="130" height="32" as="geometry"/>
                </mxCell>
                <mxCell id="49" style="edgeStyle=none;html=1;" parent="1" source="18" target="35" edge="1">
                    <mxGeometry relative="1" as="geometry"/>
                </mxCell>
                <mxCell id="52" style="edgeStyle=orthogonalEdgeStyle;html=1;entryX=1;entryY=0.5;entryDx=0;entryDy=0;" parent="1" source="18" target="19" edge="1">
                    <mxGeometry relative="1" as="geometry"/>
                </mxCell>
                <mxCell id="18" value="Indexer" style="rounded=0;whiteSpace=wrap;html=1;strokeColor=default;fontSize=14;fillColor=none;" parent="1" vertex="1">
                    <mxGeometry x="720" y="220" width="80" height="40" as="geometry"/>
                </mxCell>
                <mxCell id="19" value="docs" style="rounded=0;whiteSpace=wrap;html=1;strokeColor=default;fontSize=14;fillColor=none;" parent="1" vertex="1">
                    <mxGeometry x="460" y="220" width="170" height="40" as="geometry"/>
                </mxCell>
                <mxCell id="11" value="AI Search" style="aspect=fixed;html=1;points=[];align=center;image;fontSize=12;image=img/lib/azure2/app_services/Search_Services.svg;strokeColor=default;" parent="1" vertex="1">
                    <mxGeometry x="358" y="150" width="72" height="52" as="geometry"/>
                </mxCell>
                <mxCell id="34" value="docs-images&lt;br&gt;(extracting/embedding)" style="rounded=0;whiteSpace=wrap;html=1;strokeColor=default;fontSize=14;fillColor=none;" parent="1" vertex="1">
                    <mxGeometry x="460" y="340" width="170" height="40" as="geometry"/>
                </mxCell>
                <mxCell id="50" style="edgeStyle=orthogonalEdgeStyle;html=1;entryX=1;entryY=0.5;entryDx=0;entryDy=0;" parent="1" source="35" target="34" edge="1">
                    <mxGeometry relative="1" as="geometry"/>
                </mxCell>
                <mxCell id="51" style="edgeStyle=orthogonalEdgeStyle;html=1;entryX=1;entryY=0.5;entryDx=0;entryDy=0;" parent="1" source="35" target="48" edge="1">
                    <mxGeometry relative="1" as="geometry"/>
                </mxCell>
                <mxCell id="35" value="Cognitive Services" style="aspect=fixed;html=1;points=[];align=center;image;fontSize=12;image=img/lib/azure2/ai_machine_learning/Cognitive_Services.svg;" parent="1" vertex="1">
                    <mxGeometry x="726" y="470" width="68" height="48" as="geometry"/>
                </mxCell>
                <mxCell id="46" value="Mulit-modal Embedding Skill" style="text;html=1;strokeColor=none;fillColor=none;align=left;verticalAlign=middle;whiteSpace=wrap;rounded=0;fontSize=14;" parent="1" vertex="1">
                    <mxGeometry x="794" y="438" width="192.5" height="32" as="geometry"/>
                </mxCell>
                <mxCell id="48" value="docs-chunks&lt;br&gt;(chunking/embedding)" style="rounded=0;whiteSpace=wrap;html=1;strokeColor=default;fontSize=14;fillColor=none;" parent="1" vertex="1">
                    <mxGeometry x="460" y="280" width="170" height="40" as="geometry"/>
                </mxCell>
            </root>
        </mxGraphModel>
    </diagram>
</mxfile>